<svg xmlns="http://www.w3.org/2000/svg" xmlns:xlink="http://www.w3.org/1999/xlink" version="1.1" id="Layer_1" x="0px" y="0px" viewBox="0 0 772.6 144" style="enable-background:new 0 0 772.6 144;" xml:space="preserve" class="style-svg aligncenter replaced-svg svg-replaced-0">
<style type="text/css">
	.st0{fill:#FFFFFF;}
</style>
    <g>
	<path class="st0" d="M515.7,10.8L592.6,144h-33.3L492.8,28.8h-16.5L409.9,144h-33.3l76.9-133.2c3.9-6.7,11-10.8,18.7-10.8H497   C504.7,0,511.9,4.1,515.7,10.8z"></path>
        <path class="st0" d="M360,115.2L343.4,144H223.2c-11.9,0-21.6-9.7-21.6-21.6V0h28.8v115.2H360z"></path>
        <path class="st0" d="M172.8,21.6v57.6c0,11.9-9.7,21.6-21.6,21.6H57.6L74.2,72H144V28.8H28.8V144H0V0h151.2   C163.1,0,172.8,9.7,172.8,21.6z"></path>
        <path class="st0" d="M772.6,0v28.8H643v86.4h129.6V144H635.8c-11.9,0-21.6-9.7-21.6-21.6V21.6c0-11.9,9.7-21.6,21.6-21.6   C635.8,0,772.6,0,772.6,0z"></path>
        <rect x="671.8" y="57.6" class="st0" width="93.6" height="28.8"></rect>
</g>
</svg>
